<svg width="100" height="100" viewBox="0 0 100 100" fill="none" xmlns="http://www.w3.org/2000/svg">
<path d="M67.8515 23.9286C67.6213 23.8754 67.4147 23.7483 67.2635 23.5667C67.1123 23.385 67.0247 23.1589 67.0141 22.9227C67.0083 22.7678 67.0368 22.6135 67.0978 22.471C69.2044 17.4703 70.1341 13.4692 68.6328 11.7944C64.6604 7.35158 48.7249 16.1873 43.643 19.1813C43.507 19.2603 43.3558 19.3098 43.1993 19.3266C43.0429 19.3435 42.8846 19.3272 42.7348 19.279C42.585 19.2308 42.4471 19.1516 42.3298 19.0466C42.2126 18.9416 42.1188 18.8132 42.0544 18.6696C39.919 13.6801 37.6739 10.2082 35.3976 10.0585C29.366 9.65537 24.5026 26.8938 23.0799 32.5123C23.0423 32.6645 22.9714 32.8064 22.8723 32.9279C22.7733 33.0494 22.6486 33.1474 22.5071 33.2149C22.3649 33.2852 22.2094 33.3245 22.0508 33.3303C21.8923 33.3361 21.7343 33.3083 21.5873 33.2486C16.4593 31.1932 12.3547 30.2871 10.6387 31.751C6.0823 35.6248 15.1427 51.166 18.2115 56.1218C18.3338 56.3213 18.3866 56.5557 18.3618 56.7885C18.3369 57.0212 18.2359 57.2392 18.0742 57.4084C17.9651 57.522 17.8333 57.6112 17.6874 57.6705C12.5718 59.7534 9.01383 61.9424 8.85658 64.1626C8.446 70.0443 26.1213 74.7867 31.8845 76.1745C32.0392 76.2127 32.1794 76.2805 32.3051 76.3779C32.4275 76.4739 32.5279 76.5952 32.5994 76.7334C32.6709 76.8717 32.7118 77.0236 32.7194 77.1791C32.7253 77.334 32.6967 77.4883 32.6358 77.6309C30.5292 82.6316 29.5994 86.6339 31.1007 88.3074C35.0731 92.7515 51.0112 83.9157 56.0917 80.9231C56.2975 80.8022 56.5364 80.75 56.7738 80.774C57.0112 80.798 57.2347 80.897 57.4121 81.0566C57.5267 81.1622 57.6181 81.2906 57.6804 81.4335C59.8157 86.4217 62.0596 89.8936 64.3372 90.0446C70.3687 90.4465 75.2322 73.2092 76.6524 67.5895C76.6911 67.4385 76.7627 67.2979 76.862 67.1777C76.9619 67.0551 77.0871 66.9554 77.229 66.8856C77.371 66.8159 77.5263 66.7775 77.6845 66.7733C77.8429 66.7678 78.0007 66.7959 78.1475 66.8557C83.2754 68.9112 87.3788 69.816 89.0961 68.3533C93.6525 64.4783 84.5908 48.9358 81.5208 43.9801C81.399 43.7805 81.3465 43.5463 81.3716 43.3138C81.3966 43.0814 81.4978 42.8637 81.6593 42.6946C81.7685 42.5811 81.9003 42.4918 82.0462 42.4326C87.1629 40.3484 90.7222 38.1594 90.8757 35.9393C91.2888 30.0575 73.6123 25.3151 67.8503 23.9299M60.9289 18.2915C62.0896 20.3182 56.1142 33.8239 51.6689 43.27C51.593 43.4283 51.4712 43.56 51.3194 43.6481C51.1655 43.7368 50.9885 43.7772 50.8114 43.7641C50.6343 43.751 50.4652 43.6849 50.326 43.5745C50.1899 43.4646 50.0899 43.3163 50.039 43.1489C48.2431 37.0076 46.1927 29.7904 43.9975 23.6653C43.9112 23.4249 43.9156 23.1613 44.01 22.924C44.1055 22.685 44.2829 22.4877 44.5104 22.3674C49.9916 19.4471 59.3715 15.5708 60.9289 18.2915ZM34.6613 19.9638C36.9488 20.5965 42.5161 34.2657 46.2226 44.01C46.2845 44.1733 46.2937 44.3518 46.2489 44.5206C46.2041 44.6893 46.1077 44.8399 45.973 44.951C45.8369 45.065 45.6696 45.1355 45.4929 45.1533C45.3163 45.1711 45.1383 45.1354 44.9821 45.0508C39.2551 41.9496 32.5771 38.2568 26.583 35.4388C26.3498 35.3293 26.1631 35.1404 26.0564 34.9059C25.9507 34.6743 25.933 34.4121 26.0065 34.1684C27.7711 28.329 31.5862 19.1151 34.6613 19.9638ZM17.2992 39.2577C19.3759 38.127 33.2261 43.9539 42.9105 48.2869C43.0727 48.3593 43.2087 48.4791 43.2986 48.6288C43.3885 48.778 43.4296 48.9514 43.4162 49.125C43.4028 49.2987 43.3355 49.4637 43.2237 49.5973C43.1099 49.733 42.9576 49.8309 42.7869 49.8781C36.4908 51.629 29.089 53.6295 22.8066 55.7698C22.5603 55.8535 22.2925 55.8491 22.0491 55.7573C21.808 55.6665 21.6066 55.4937 21.48 55.2694C18.4911 49.923 14.5087 40.7765 17.2992 39.2577ZM19.014 64.8752C19.6617 62.6438 33.6803 57.2125 43.6717 53.5996C43.8386 53.5406 44.0192 53.5323 44.1909 53.5755C44.3625 53.6188 44.5175 53.7119 44.6364 53.8429C44.7518 53.9734 44.8235 54.1366 44.8416 54.3097C44.8597 54.4829 44.8233 54.6574 44.7375 54.8089C41.5577 60.3936 37.7713 66.9069 34.8809 72.7512C34.7662 72.9824 34.5728 73.1651 34.3355 73.2666C34.0963 73.3703 33.8285 73.3875 33.578 73.3153C27.5914 71.6056 18.1404 67.8741 19.014 64.8752ZM38.8008 81.8079C37.6402 79.7824 43.6168 66.2754 48.0609 56.8306C48.1368 56.6723 48.2585 56.5406 48.4104 56.4525C48.5645 56.3646 48.7413 56.3247 48.9183 56.3378C49.0952 56.3509 49.2643 56.4165 49.4038 56.5261C49.5397 56.6357 49.6397 56.7835 49.6908 56.9504C51.4867 63.0905 53.5384 70.3102 55.7323 76.4353C55.8183 76.6753 55.8138 76.9384 55.7198 77.1753C55.6237 77.4141 55.4459 77.6109 55.2181 77.7307C49.7382 80.6448 40.3571 84.5285 38.8071 81.8079H38.8008ZM65.0698 80.1356C62.7785 79.5041 57.2112 65.8324 53.5059 56.0881C53.4438 55.9246 53.4344 55.7458 53.4792 55.5768C53.524 55.4078 53.6206 55.2571 53.7555 55.1458C53.892 55.0319 54.0596 54.9618 54.2366 54.9444C54.4135 54.927 54.5916 54.9633 54.7477 55.0485C60.4722 58.1485 67.1527 61.8438 73.1455 64.6618C73.3814 64.7716 73.5686 64.9613 73.6734 65.1934C73.779 65.4255 73.7963 65.6882 73.7221 65.9322C71.9587 71.7803 68.1436 80.9867 65.0698 80.1356ZM82.4318 60.8392C80.3539 61.9711 66.505 56.143 56.8193 51.8087C56.6586 51.7369 56.5233 51.6181 56.4312 51.468C56.341 51.3188 56.2997 51.145 56.3131 50.9712C56.3266 50.7973 56.394 50.632 56.5061 50.4983C56.6198 50.3626 56.7722 50.2647 56.9429 50.2175C63.2402 48.4678 70.6396 46.4673 76.9219 44.327C77.169 44.2427 77.4378 44.2471 77.682 44.3395C77.9237 44.4304 78.1256 44.6036 78.2523 44.8287C81.2387 50.1726 85.2211 59.3216 82.4318 60.8392ZM80.7183 35.2229C80.0681 37.4568 66.0507 42.8856 56.0593 46.4998C55.8922 46.559 55.7114 46.5675 55.5395 46.5242C55.3676 46.4809 55.2124 46.3877 55.0933 46.2564C54.9777 46.1256 54.9059 45.9619 54.8879 45.7882C54.87 45.6145 54.907 45.4396 54.9935 45.288C58.1721 39.7045 61.9585 33.19 64.8489 27.3456C64.9639 27.1149 65.1572 26.9327 65.3943 26.8314C65.6336 26.7282 65.9014 26.7114 66.1518 26.784C72.1384 28.5025 81.5894 32.224 80.7183 35.2229Z" fill="white"/>
</svg>
