<svg viewBox="0 0 20 20" xmlns="http://www.w3.org/2000/svg"><defs><linearGradient id="g" x1="0.5" y1="0" x2="0.5" y2="1"><stop offset="0%" stop-color="#B97AF7"/><stop offset="100%" stop-color="#6B4FD8"/></linearGradient></defs><path fill="url(#g)" d="M11.64 18c1.48 0 3.12-.3 4.58-.88.54-.22.78-.42.78-.88 0-.38-.4-.84-1.18-.52-1.28.54-2.82.78-4.18.78-4.98 0-8.14-2.32-8.14-5.46 0-2.5 2.18-4.28 5.08-4.28 2.4 0 4.08 1 4.08 2.24 0 1.08-1.1 1.6-2.64 1l.34-1.02C7.96 8 5.98 9.12 5.98 11c0 2.1 2.32 3.5 5.52 3.5 3.76 0 6.5-2.32 6.5-5.54C18 4.94 14.2 2 8.36 2c-1.48 0-3.12.26-4.58.88-.52.22-.78.48-.78.86 0 .46.46.84 1.18.54C5.46 3.74 7 3.5 8.36 3.5c4.98 0 8.14 2.32 8.14 5.46 0 2.5-2.18 4.28-5.08 4.28-2.4 0-4.08-1-4.08-2.24 0-1.08 1.1-1.6 2.64-1l-.34 1.02c2.4.98 4.38-.14 4.38-2.02 0-2.1-2.32-3.5-5.52-3.5C4.74 5.5 2 7.82 2 11.04 2 15.06 5.8 18 11.64 18"/></svg>