<svg xmlns="http://www.w3.org/2000/svg" version="1.1" xmlns:xlink="http://www.w3.org/1999/xlink" width="1000" height="1000"><g clip-path="url(#SvgjsClipPath1024)"><rect width="1000" height="1000" fill="#ffffff"></rect><g transform="matrix(14.814814814814815,0,0,14.814814814814815,100,100)"><svg xmlns="http://www.w3.org/2000/svg" version="1.1" xmlns:xlink="http://www.w3.org/1999/xlink" width="54" height="54"><svg width="54" height="54" viewBox="0 0 54 54" fill="none" xmlns="http://www.w3.org/2000/svg">
<path d="M27.8517 26.3314C27.8439 26.1451 27.8371 25.9303 27.8337 25.692C27.8203 24.7571 27.8545 23.4581 28.0457 22.0052C28.4322 19.0688 29.4394 15.6521 31.8222 13.2693C34.205 10.8867 37.6212 9.87992 40.5575 9.49344C42.0107 9.30219 43.3101 9.26734 44.245 9.28076C44.4829 9.28417 44.6968 9.29231 44.883 9.30009C44.8908 9.48595 44.8975 9.69933 44.901 9.93676C44.9144 10.8716 44.8795 12.171 44.6883 13.6242C44.3018 16.5605 43.2958 19.9773 40.9131 22.3602C38.5303 24.743 35.1129 25.7495 32.1765 26.136C30.7234 26.3272 29.4246 26.3614 28.4897 26.348C28.2518 26.3446 28.0378 26.3392 27.8517 26.3314Z" stroke="black" stroke-width="2"></path>
<path d="M27.8916 27.1592C28.0179 27.0219 28.165 26.8653 28.3311 26.6943C28.9826 26.0238 29.9253 25.1295 31.0879 24.2373C33.4375 22.4342 36.5658 20.7305 39.9355 20.7305C43.3051 20.7306 46.4327 22.4343 48.7822 24.2373C49.945 25.1296 50.8885 26.0238 51.54 26.6943C51.7059 26.865 51.8514 27.022 51.9775 27.1592C51.8516 27.2961 51.7055 27.4518 51.54 27.6221C50.8885 28.2926 49.945 29.1868 48.7822 30.0791C46.4327 31.8821 43.3052 33.5868 39.9355 33.5869C36.5657 33.5869 33.4375 31.8822 31.0879 30.0791C29.9252 29.1868 28.9826 28.2926 28.3311 27.6221C28.1652 27.4514 28.0177 27.2963 27.8916 27.1592Z" stroke="black" stroke-width="2"></path>
<path d="M27.4459 27.6915C27.6323 27.6837 27.8471 27.677 28.0854 27.6736C29.0202 27.6602 30.3192 27.6943 31.7721 27.8856C34.7085 28.272 38.1253 29.2793 40.5081 31.6621C42.8906 34.0448 43.8974 37.4611 44.2839 40.3973C44.4752 41.8505 44.51 43.1499 44.4966 44.0848C44.4932 44.3228 44.485 44.5367 44.4773 44.7229C44.2914 44.7306 44.078 44.7374 43.8406 44.7408C42.9057 44.7542 41.6063 44.7194 40.1531 44.5281C37.2168 44.1417 33.8 43.1356 31.4172 40.753C29.0343 38.3701 28.0278 34.9528 27.6413 32.0163C27.4501 30.5633 27.4159 29.2644 27.4294 28.3296C27.4328 28.0916 27.4381 27.8777 27.4459 27.6915Z" stroke="black" stroke-width="2"></path>
<path d="M26.916 28.1289C27.0533 28.2552 27.2099 28.4023 27.3809 28.5684C28.0514 29.2199 28.9457 30.1626 29.8379 31.3252C31.641 33.6748 33.3447 36.8031 33.3447 40.1728C33.3446 43.5424 31.6409 46.67 29.8379 49.0195C28.9456 50.1823 28.0514 51.1258 27.3809 51.7773C27.2102 51.9432 27.0532 52.0887 26.916 52.2148C26.7791 52.0889 26.6234 51.9428 26.4531 51.7773C25.7826 51.1258 24.8884 50.1823 23.9961 49.0195C22.1931 46.67 20.4884 43.5426 20.4883 40.1728C20.4883 36.803 22.193 33.6748 23.9961 31.3252C24.8884 30.1625 25.7826 29.2199 26.4531 28.5684C26.6238 28.4025 26.7789 28.255 26.916 28.1289Z" stroke="black" stroke-width="2"></path>
<path d="M26.2147 27.691C26.2225 27.8774 26.2293 28.0922 26.2327 28.3305C26.2461 29.2653 26.2119 30.5643 26.0207 32.0172C25.6342 34.9536 24.627 38.3704 22.2442 40.7532C19.8614 43.1357 16.4452 44.1425 13.5089 44.529C12.0557 44.7203 10.7563 44.7551 9.82145 44.7417C9.58349 44.7383 9.36957 44.7301 9.1834 44.7224C9.17564 44.5365 9.16886 44.3231 9.16545 44.0857C9.15203 43.1508 9.18689 41.8514 9.37813 40.3982C9.76458 37.4619 10.7706 34.0451 13.1533 31.6623C15.5361 29.2795 18.9535 28.2729 21.8899 27.8865C23.343 27.6952 24.6419 27.6611 25.5767 27.6745C25.8146 27.6779 26.0286 27.6833 26.2147 27.691Z" stroke="black" stroke-width="2"></path>
<path d="M25.7021 27.1602C25.5759 27.2974 25.4288 27.4541 25.2627 27.625C24.6111 28.2955 23.6684 29.1899 22.5059 30.082C20.1562 31.8851 17.028 33.5889 13.6582 33.5889C10.2886 33.5887 7.16105 31.885 4.81153 30.082C3.64873 29.1897 2.70529 28.2955 2.05372 27.625C1.88786 27.4543 1.74236 27.2973 1.61622 27.1602C1.74215 27.0232 1.88824 26.8676 2.05372 26.6973C2.70527 26.0267 3.64874 25.1326 4.81153 24.2402C7.16108 22.4372 10.2885 20.7326 13.6582 20.7324C17.0281 20.7324 20.1562 22.4371 22.5059 24.2402C23.6686 25.1325 24.6112 26.0268 25.2627 26.6973C25.4285 26.8679 25.576 27.023 25.7021 27.1602Z" stroke="black" stroke-width="2"></path>
<path d="M25.7338 25.9813C25.5474 25.9891 25.3326 25.9959 25.0943 25.9993C24.1595 26.0127 22.8605 25.9785 21.4076 25.7873C18.4712 25.4008 15.0544 24.3936 12.6716 22.0108C10.2891 19.628 9.28226 16.2118 8.89579 13.2755C8.70453 11.8223 8.66969 10.5229 8.6831 9.58806C8.68652 9.35009 8.69466 9.13618 8.70244 8.95C8.8883 8.94224 9.10168 8.93546 9.33911 8.93205C10.274 8.91863 11.5734 8.95349 13.0266 9.14473C15.9629 9.53118 19.3797 10.5372 21.7625 12.9199C24.1454 15.3027 25.1519 18.7201 25.5383 21.6565C25.7296 23.1096 25.7638 24.4085 25.7503 25.3433C25.7469 25.5812 25.7415 25.7952 25.7338 25.9813Z" stroke="black" stroke-width="2"></path>
<path d="M26.9121 25.7031C26.7748 25.5769 26.6182 25.4298 26.4473 25.2637C25.7768 24.6121 24.8824 23.6694 23.9902 22.5068C22.1872 20.1572 20.4834 17.029 20.4834 13.6592C20.4835 10.2896 22.1873 7.16203 23.9902 4.8125C24.8826 3.6497 25.7767 2.70627 26.4473 2.05469C26.618 1.88883 26.775 1.74333 26.9121 1.61719C27.049 1.74312 27.2047 1.88921 27.375 2.05469C28.0455 2.70624 28.9397 3.64971 29.832 4.8125C31.6351 7.16206 33.3397 10.2895 33.3398 13.6592C33.3398 17.029 31.6351 20.1572 29.832 22.5068C28.9398 23.6695 28.0455 24.6121 27.375 25.2637C27.2043 25.4295 27.0492 25.577 26.9121 25.7031Z" stroke="black" stroke-width="2"></path>
<path d="M25.5607 19.3789L27.4618 19.3457C27.5492 19.3442 27.6286 19.3884 27.6747 19.4583L27.7093 19.5368L28.045 20.9198C28.1559 21.3761 28.4798 21.7513 28.9152 21.9272C29.3419 22.0994 29.8251 22.0595 30.2183 21.8205L31.3036 21.1608C31.3771 21.116 31.4662 21.1134 31.5407 21.1488L31.6099 21.1965L32.9965 22.5729C33.0577 22.6336 33.0825 22.7203 33.0659 22.8012L33.035 22.8799L32.4788 23.8048C32.2386 24.2041 32.1867 24.6853 32.3299 25.122L32.4034 25.3063C32.5966 25.715 32.9524 26.0199 33.3793 26.1498L33.5666 26.1943L34.4238 26.3454C34.5414 26.3663 34.628 26.4675 34.6302 26.587L34.6642 28.532C34.6662 28.6469 34.5891 28.7489 34.478 28.7784L33.3785 29.0711C32.9508 29.1849 32.5956 29.4757 32.399 29.8657L32.3249 30.0389C32.1648 30.4848 32.2187 30.9794 32.4714 31.3803L33.0028 32.2237C33.0497 32.2981 33.0532 32.3898 33.0168 32.4656L32.9672 32.5349L31.5394 33.9438C31.4825 33.9998 31.4038 34.0241 31.3277 34.0129L31.2531 33.9898L30.2136 33.4737C29.8594 33.298 29.4528 33.2687 29.0801 33.387L28.9219 33.4464C28.5639 33.6057 28.2838 33.8968 28.1361 34.2552L28.0812 34.4124L27.7617 35.5207C27.7312 35.6261 27.6352 35.6996 27.5255 35.7016L25.5874 35.7354C25.4685 35.7375 25.3646 35.6555 25.3388 35.5396L25.0832 34.3808L25.0342 34.2068C24.9146 33.8684 24.6748 33.5849 24.361 33.4108L24.1976 33.3335L24.0433 33.2806C23.7308 33.1931 23.3978 33.2118 23.0968 33.3332L22.9495 33.4022L21.7729 34.0361C21.6979 34.0764 21.6097 34.0746 21.5375 34.0363L21.4722 33.9867L20.1375 32.5586C20.0776 32.4944 20.0574 32.4054 20.0787 32.3242L20.1135 32.2474L20.7373 31.3321C20.9834 30.9707 21.049 30.5199 20.923 30.108L20.8575 29.9343L20.7817 29.7901C20.6149 29.5119 20.3581 29.2988 20.0542 29.1855L19.8981 29.1365L18.4973 28.7898C18.3875 28.7625 18.3097 28.6649 18.3075 28.5518L18.275 26.6888C18.2733 26.5838 18.3372 26.4906 18.4321 26.4527L18.4738 26.4402L19.6961 26.1854C20.1451 26.0918 20.5232 25.7997 20.7294 25.3977L20.8074 25.2186C20.9466 24.8306 20.9208 24.4049 20.7399 24.0399L20.6523 23.8881L20.0481 22.9571C19.9825 22.8563 19.9975 22.723 20.0845 22.64L21.5852 21.2083C21.6715 21.126 21.8046 21.1157 21.9022 21.1843L22.718 21.758C23.1295 22.0472 23.659 22.111 24.1274 21.9278C24.5375 21.7673 24.8531 21.4365 24.9966 21.0267L25.0481 20.8461L25.3209 19.5765C25.3453 19.4629 25.4445 19.3809 25.5607 19.3789Z" fill="white" stroke="black" stroke-width="1.5"></path>
<circle cx="26.4669" cy="27.5406" r="2.53895" transform="rotate(-1 26.4669 27.5406)" fill="white" stroke="black" stroke-width="1.5"></circle>
</svg></svg></g></g><defs><clipPath id="SvgjsClipPath1024"><rect width="1000" height="1000" x="0" y="0" rx="250" ry="250"></rect></clipPath></defs></svg>