<svg width="100" height="100" viewBox="0 0 54 54" fill="none" xmlns="http://www.w3.org/2000/svg">
<path d="M27.8517 26.3314C27.8439 26.1451 27.8371 25.9303 27.8337 25.692C27.8203 24.7571 27.8545 23.4581 28.0457 22.0052C28.4322 19.0688 29.4394 15.6521 31.8222 13.2693C34.205 10.8867 37.6212 9.87992 40.5575 9.49344C42.0107 9.30219 43.3101 9.26734 44.245 9.28076C44.4829 9.28417 44.6968 9.29231 44.883 9.30009C44.8908 9.48595 44.8975 9.69933 44.901 9.93676C44.9144 10.8716 44.8795 12.171 44.6883 13.6242C44.3018 16.5605 43.2958 19.9773 40.9131 22.3602C38.5303 24.743 35.1129 25.7495 32.1765 26.136C30.7234 26.3272 29.4246 26.3614 28.4897 26.348C28.2518 26.3446 28.0378 26.3392 27.8517 26.3314Z" stroke="white" stroke-width="2.5"/>
<path d="M27.8916 27.1592C28.0179 27.0219 28.165 26.8653 28.3311 26.6943C28.9826 26.0238 29.9253 25.1295 31.0879 24.2373C33.4375 22.4342 36.5658 20.7305 39.9355 20.7305C43.3051 20.7306 46.4327 22.4343 48.7822 24.2373C49.945 25.1296 50.8885 26.0238 51.54 26.6943C51.7059 26.865 51.8514 27.022 51.9775 27.1592C51.8516 27.2961 51.7055 27.4518 51.54 27.6221C50.8885 28.2926 49.945 29.1868 48.7822 30.0791C46.4327 31.8821 43.3052 33.5868 39.9355 33.5869C36.5657 33.5869 33.4375 31.8822 31.0879 30.0791C29.9252 29.1868 28.9826 28.2926 28.3311 27.6221C28.1652 27.4514 28.0177 27.2963 27.8916 27.1592Z" stroke="white" stroke-width="2.5"/>
<path d="M27.4459 27.6915C27.6323 27.6837 27.8471 27.677 28.0854 27.6736C29.0202 27.6602 30.3192 27.6943 31.7721 27.8856C34.7085 28.272 38.1253 29.2793 40.5081 31.6621C42.8906 34.0448 43.8974 37.4611 44.2839 40.3973C44.4752 41.8505 44.51 43.1499 44.4966 44.0848C44.4932 44.3228 44.485 44.5367 44.4773 44.7229C44.2914 44.7306 44.078 44.7374 43.8406 44.7408C42.9057 44.7542 41.6063 44.7194 40.1531 44.5281C37.2168 44.1417 33.8 43.1356 31.4172 40.753C29.0343 38.3701 28.0278 34.9528 27.6413 32.0163C27.4501 30.5633 27.4159 29.2644 27.4294 28.3296C27.4328 28.0916 27.4381 27.8777 27.4459 27.6915Z" stroke="white" stroke-width="2.5"/>
<path d="M26.916 28.1289C27.0533 28.2552 27.2099 28.4023 27.3809 28.5684C28.0514 29.2199 28.9457 30.1626 29.8379 31.3252C31.641 33.6748 33.3447 36.8031 33.3447 40.1728C33.3446 43.5424 31.6409 46.67 29.8379 49.0195C28.9456 50.1823 28.0514 51.1258 27.3809 51.7773C27.2102 51.9432 27.0532 52.0887 26.916 52.2148C26.7791 52.0889 26.6234 51.9428 26.4531 51.7773C25.7826 51.1258 24.8884 50.1823 23.9961 49.0195C22.1931 46.67 20.4884 43.5426 20.4883 40.1728C20.4883 36.803 22.193 33.6748 23.9961 31.3252C24.8884 30.1625 25.7826 29.2199 26.4531 28.5684C26.6238 28.4025 26.7789 28.255 26.916 28.1289Z" stroke="white" stroke-width="2.5"/>
<path d="M26.2147 27.691C26.2225 27.8774 26.2293 28.0922 26.2327 28.3305C26.2461 29.2653 26.2119 30.5643 26.0207 32.0172C25.6342 34.9536 24.627 38.3704 22.2442 40.7532C19.8614 43.1357 16.4452 44.1425 13.5089 44.529C12.0557 44.7203 10.7563 44.7551 9.82145 44.7417C9.58349 44.7383 9.36957 44.7301 9.1834 44.7224C9.17564 44.5365 9.16886 44.3231 9.16545 44.0857C9.15203 43.1508 9.18689 41.8514 9.37813 40.3982C9.76458 37.4619 10.7706 34.0451 13.1533 31.6623C15.5361 29.2795 18.9535 28.2729 21.8899 27.8865C23.343 27.6952 24.6419 27.6611 25.5767 27.6745C25.8146 27.6779 26.0286 27.6833 26.2147 27.691Z" stroke="white" stroke-width="2.5"/>
<path d="M25.7021 27.1602C25.5759 27.2974 25.4288 27.4541 25.2627 27.625C24.6111 28.2955 23.6684 29.1899 22.5059 30.082C20.1562 31.8851 17.028 33.5889 13.6582 33.5889C10.2886 33.5887 7.16105 31.885 4.81153 30.082C3.64873 29.1897 2.70529 28.2955 2.05372 27.625C1.88786 27.4543 1.74236 27.2973 1.61622 27.1602C1.74215 27.0232 1.88824 26.8676 2.05372 26.6973C2.70527 26.0267 3.64874 25.1326 4.81153 24.2402C7.16108 22.4372 10.2885 20.7326 13.6582 20.7324C17.0281 20.7324 20.1562 22.4371 22.5059 24.2402C23.6686 25.1325 24.6112 26.0268 25.2627 26.6973C25.4285 26.8679 25.576 27.023 25.7021 27.1602Z" stroke="white" stroke-width="2.5"/>
<path d="M25.7338 25.9813C25.5474 25.9891 25.3326 25.9959 25.0943 25.9993C24.1595 26.0127 22.8605 25.9785 21.4076 25.7873C18.4712 25.4008 15.0544 24.3936 12.6716 22.0108C10.2891 19.628 9.28226 16.2118 8.89579 13.2755C8.70453 11.8223 8.66969 10.5229 8.6831 9.58806C8.68652 9.35009 8.69466 9.13618 8.70244 8.95C8.8883 8.94224 9.10168 8.93546 9.33911 8.93205C10.274 8.91863 11.5734 8.95349 13.0266 9.14473C15.9629 9.53118 19.3797 10.5372 21.7625 12.9199C24.1454 15.3027 25.1519 18.7201 25.5383 21.6565C25.7296 23.1096 25.7638 24.4085 25.7503 25.3433C25.7469 25.5812 25.7415 25.7952 25.7338 25.9813Z" stroke="white" stroke-width="2.5"/>
<path d="M26.9121 25.7031C26.7748 25.5769 26.6182 25.4298 26.4473 25.2637C25.7768 24.6121 24.8824 23.6694 23.9902 22.5068C22.1872 20.1572 20.4834 17.029 20.4834 13.6592C20.4835 10.2896 22.1873 7.16203 23.9902 4.8125C24.8826 3.6497 25.7767 2.70627 26.4473 2.05469C26.618 1.88883 26.775 1.74333 26.9121 1.61719C27.049 1.74312 27.2047 1.88921 27.375 2.05469C28.0455 2.70624 28.9397 3.64971 29.832 4.8125C31.6351 7.16206 33.3397 10.2895 33.3398 13.6592C33.3398 17.029 31.6351 20.1572 29.832 22.5068C28.9398 23.6695 28.0455 24.6121 27.375 25.2637C27.2043 25.4295 27.0492 25.577 26.9121 25.7031Z" stroke="white" stroke-width="2.5"/>
<g transform="translate(21.7222 21.7222) scale(0.5555556)">
<path d="M8.56067 1.3799L10.4618 1.34671C10.5492 1.34522 10.6286 1.38935 10.6747 1.45923L10.7093 1.53774L11.045 2.92076C11.1559 3.37707 11.4798 3.75232 11.9152 3.92819C12.3419 4.10041 12.8251 4.0605 13.2183 3.82145L14.3036 3.16178C14.3771 3.11703 14.4662 3.1144 14.5407 3.14983L14.6099 3.19745L15.9965 4.57385C16.0577 4.63461 16.0825 4.72126 16.0659 4.80217L16.035 4.88085L15.4788 5.80573C15.2386 6.20505 15.1867 6.68631 15.3299 7.12299L15.4034 7.30728C15.5966 7.71593 15.9524 8.02086 16.3793 8.15073L16.5666 8.19532L17.4238 8.34639C17.5414 8.36729 17.628 8.46852 17.6302 8.58794L17.6642 10.533C17.6662 10.6479 17.5891 10.7499 17.478 10.7794L16.3785 11.0721C15.9508 11.1859 15.5956 11.4767 15.399 11.8666L15.3249 12.0398C15.1648 12.4858 15.2187 12.9804 15.4714 13.3812L16.0028 14.2246C16.0497 14.2991 16.0532 14.3908 16.0168 14.4666L15.9672 14.5358L14.5394 15.9448C14.4825 16.0008 14.4038 16.025 14.3277 16.0139L14.2531 15.9908L13.2136 15.4747C12.8594 15.2989 12.4528 15.2697 12.0801 15.388L11.9219 15.4474C11.5639 15.6067 11.2838 15.8977 11.1361 16.2562L11.0812 16.4134L10.7617 17.5217C10.7312 17.6271 10.6352 17.7006 10.5255 17.7026L8.58735 17.7364C8.46855 17.7385 8.36456 17.6565 8.33878 17.5405L8.08316 16.3817L8.03422 16.2078C7.91462 15.8694 7.67485 15.5859 7.36105 15.4118L7.19756 15.3345L7.04329 15.2815C6.73077 15.1941 6.39776 15.2128 6.0968 15.3342L5.94955 15.4032L4.77293 16.0371C4.6979 16.0774 4.60969 16.0756 4.53755 16.0373L4.47222 15.9877L3.13752 14.5596C3.0776 14.4954 3.05736 14.4064 3.07873 14.3252L3.11353 14.2484L3.7373 13.3331C3.98342 12.9717 4.04895 12.5208 3.923 12.109L3.85746 11.9353L3.78169 11.7911C3.61486 11.5129 3.35814 11.2998 3.05423 11.1865L2.89807 11.1374L1.49728 10.7907C1.38749 10.7635 1.30969 10.6659 1.30755 10.5528L1.27503 8.6898C1.27334 8.58474 1.33722 8.49154 1.43207 8.45363L1.47385 8.44118L2.69615 8.18641C3.14512 8.09283 3.52318 7.80066 3.72943 7.39873L3.80738 7.2196C3.94662 6.83155 3.92084 6.40585 3.73992 6.04091L3.6523 5.8891L3.04806 4.9581C2.98255 4.85725 2.99751 4.72403 3.08453 4.64101L4.58516 3.20932C4.67146 3.12699 4.80459 3.11666 4.90217 3.18523L5.71797 3.75897C6.12951 4.04818 6.65895 4.11193 7.1274 3.92874C7.53749 3.76829 7.85309 3.43752 7.99657 3.02769L8.04812 2.84707L8.32092 1.57747C8.34533 1.46387 8.44449 1.38193 8.56067 1.3799Z" fill="white" stroke="white" stroke-width="1.5"/>
<circle cx="9.46694" cy="9.5416" r="2.53895" transform="rotate(-1 9.46694 9.5416)" fill="white" stroke="white" stroke-width="1.5"/>
</g>
</svg>
